<svg width="220" height="250" viewBox="0 0 220 250" fill="none" xmlns="http://www.w3.org/2000/svg">
<g clip-path="url(#clip0)">
<path d="M110 -5.35581e-05L220 62.4928L220 187.507L110 250L0 187.507L0 62.4928L110 -5.35581e-05Z" fill="white"/>
<path d="M200.359 183.196L113.638 232.471L113.638 194.102L167.672 164.24L200.359 183.196V183.196ZM206.3 177.801L206.3 74.7687L174.579 93.1825L174.579 159.415L206.3 177.801V177.801ZM19.2997 183.196L106.021 232.471L106.021 194.102L51.9586 164.24L19.2997 183.196ZM13.3592 177.801L13.3592 74.7687L45.0801 93.1825L45.0801 159.415L13.3592 177.801ZM17.0827 68.0883L106.021 17.5573L106.021 54.6419L49.031 86.131L48.5762 86.388L17.0827 68.0883V68.0883ZM202.576 68.0883L113.638 17.5573L113.638 54.6419L170.628 86.1025L171.083 86.3594L202.576 68.0883Z" fill="#8ED6FB"/>
<path d="M106.021 185.366L52.6977 155.904L52.6977 97.5791L106.021 128.497L106.021 185.366ZM113.638 185.366L166.961 155.932L166.961 97.5791L113.638 128.497L113.638 185.366ZM56.3075 90.8416L109.829 61.2938L163.351 90.8416L109.829 121.874L56.3075 90.8416V90.8416Z" fill="#1C78C0"/>
</g>
<path d="M114.08 128.571L166.635 98.2143L166.635 156.25L114.08 184.821L114.08 128.571Z" fill="#333333"/>
<path d="M119.458 172.082L119.695 178.351L117.921 179.336L117.394 165.405L124.652 161.377L124.72 163.168L119.236 166.211L119.39 170.291L123.809 167.838L123.877 169.63L119.458 172.082Z" fill="#F7DF1E"/>
<path d="M127.314 174.122L126.787 160.192L128.562 159.207L129.021 171.346L133.617 168.795L133.685 170.586L127.314 174.122Z" fill="#F7DF1E"/>
<path d="M145.076 163.004L143.068 165.48L137.868 168.366L135.759 168.175L135.326 156.713L137.334 154.237L142.534 151.351L144.643 151.542L145.076 163.004ZM137.118 156.186L137.517 166.733L143.284 163.532L142.885 152.985L137.118 156.186Z" fill="#F7DF1E"/>
<path d="M162.628 140.3L159.961 156.003L157.849 157.176L154.8 147.469L154.765 147.489L152.56 160.111L150.448 161.283L146.727 149.125L148.449 148.17L151.399 158.154L151.435 158.135L153.684 145.264L155.672 144.161L158.764 154.067L158.8 154.047L160.907 141.256L162.628 140.3Z" fill="#F7DF1E"/>
<path d="M113.807 173.576L115.286 172.755L115.38 175.243L113.901 176.063L113.807 173.576Z" fill="#F7DF1E"/>
<path d="M124.649 126.076L124.621 125.33L125.286 124.96L125.315 125.707L124.649 126.076Z" fill="#F7DF1E"/>
<path d="M127.848 123.859L127.864 124.292L126.626 124.979L126.099 124.931L126.029 123.085L126.531 122.466L127.254 122.065L127.781 122.113L127.823 123.217L126.501 123.951L126.525 124.593L127.848 123.859ZM126.463 122.946L126.485 123.518L127.377 123.023L127.355 122.451L126.463 122.946Z" fill="#F7DF1E"/>
<path d="M130.376 120.673L130.458 122.852L130.028 123.091L129.949 121.011L128.924 121.58L129.003 123.66L128.572 123.898L128.477 121.386L128.801 121.206L128.915 121.351L129.223 120.972L129.848 120.625L130.376 120.673Z" fill="#F7DF1E"/>
<path d="M131.229 119.884L131.958 121.552L131.967 121.547L132.547 119.153L132.968 118.919L132.241 121.862L131.722 122.15L130.807 120.118L131.229 119.884Z" fill="#F7DF1E"/>
<path d="M133.596 121.11L133.568 120.364L134.233 119.995L134.262 120.741L133.596 121.11Z" fill="#F7DF1E"/>
<path d="M135.478 117.501L136.148 117.129L136.471 117.158L136.421 115.835L136.851 115.596L136.989 119.253L136.665 119.432L136.551 119.287L136.244 119.666L135.574 120.038L135.047 119.99L134.976 118.12L135.478 117.501ZM136.543 119.059L136.479 117.387L135.41 117.98L135.473 119.652L136.543 119.059Z" fill="#F7DF1E"/>
<path d="M139.433 117.429L139.45 117.862L138.212 118.549L137.684 118.501L137.615 116.655L138.117 116.036L138.84 115.635L139.367 115.683L139.409 116.787L138.087 117.521L138.111 118.163L139.433 117.429ZM138.049 116.516L138.07 117.088L138.962 116.593L138.941 116.021L138.049 116.516Z" fill="#F7DF1E"/>
<path d="M140.219 114.895L140.948 116.563L140.957 116.558L141.537 114.163L141.958 113.93L141.232 116.873L140.713 117.161L139.798 115.129L140.219 114.895Z" fill="#F7DF1E"/>
<path d="M144.234 114.765L144.25 115.197L143.012 115.884L142.485 115.837L142.415 113.991L142.917 113.372L143.641 112.971L144.168 113.018L144.21 114.123L142.887 114.857L142.912 115.498L144.234 114.765ZM142.849 113.852L142.871 114.424L143.763 113.929L143.741 113.357L142.849 113.852Z" fill="#F7DF1E"/>
<path d="M145.473 114.519L144.946 114.471L144.821 111.172L145.252 110.934L145.373 114.132L145.905 113.837L145.921 114.27L145.473 114.519Z" fill="#F7DF1E"/>
<path d="M148.241 112.668L147.739 113.287L146.882 113.762L146.355 113.714L146.284 111.844L146.786 111.225L147.643 110.749L148.17 110.797L148.241 112.668ZM146.719 111.704L146.782 113.376L147.807 112.807L147.743 111.135L146.719 111.704Z" fill="#F7DF1E"/>
<path d="M150.378 111.822L149.708 112.193L149.386 112.164L149.43 113.338L149 113.577L148.867 110.07L149.191 109.89L149.305 110.035L149.612 109.656L150.282 109.284L150.81 109.332L150.88 111.203L150.378 111.822ZM149.314 110.264L149.377 111.935L150.446 111.342L150.383 109.67L149.314 110.264Z" fill="#F7DF1E"/>
<path d="M154.504 107.282L154.587 109.461L154.156 109.7L154.078 107.62L153.23 108.09L153.309 110.17L152.879 110.409L152.8 108.329L151.952 108.799L152.031 110.879L151.601 111.118L151.506 108.605L151.83 108.426L151.944 108.571L152.251 108.192L152.699 107.943L153.122 107.983L153.529 107.483L153.977 107.234L154.504 107.282Z" fill="#F7DF1E"/>
<path d="M157.033 107.661L157.049 108.094L155.811 108.781L155.284 108.733L155.214 106.888L155.716 106.269L156.439 105.867L156.967 105.915L157.008 107.019L155.686 107.753L155.711 108.395L157.033 107.661ZM155.648 106.748L155.67 107.32L156.562 106.825L156.54 106.253L155.648 106.748Z" fill="#F7DF1E"/>
<path d="M159.561 104.475L159.643 106.654L159.213 106.893L159.134 104.814L158.109 105.382L158.188 107.462L157.758 107.701L157.662 105.188L157.986 105.009L158.101 105.154L158.408 104.775L159.033 104.428L159.561 104.475Z" fill="#F7DF1E"/>
<path d="M160.098 104.304L160.081 103.871L160.489 103.645L160.474 103.227L160.893 102.71L160.92 103.406L161.452 103.111L161.469 103.543L160.936 103.839L160.998 105.461L161.53 105.165L161.546 105.598L161.098 105.847L160.571 105.799L160.506 104.078L160.098 104.304Z" fill="#F7DF1E"/>
<path d="M143.508 121.535L143.48 120.789L144.145 120.42L144.173 121.166L143.508 121.535Z" fill="#F7DF1E"/>
<path d="M146.706 119.318L146.723 119.751L145.485 120.438L144.958 120.391L144.888 118.545L145.39 117.926L146.113 117.524L146.64 117.572L146.682 118.677L145.36 119.41L145.384 120.052L146.706 119.318ZM145.322 118.405L145.344 118.978L146.235 118.483L146.214 117.91L145.322 118.405Z" fill="#F7DF1E"/>
<path d="M149.234 116.132L149.317 118.312L148.886 118.55L148.808 116.471L147.783 117.04L147.862 119.119L147.431 119.358L147.336 116.846L147.66 116.666L147.774 116.811L148.082 116.432L148.707 116.085L149.234 116.132Z" fill="#F7DF1E"/>
<path d="M150.088 115.344L150.817 117.012L150.826 117.007L151.405 114.613L151.827 114.379L151.1 117.322L150.581 117.61L149.666 115.578L150.088 115.344Z" fill="#F7DF1E"/>
<path d="M152.455 116.57L152.427 115.824L153.092 115.454L153.12 116.201L152.455 116.57Z" fill="#F7DF1E"/>
<path d="M153.662 113.802L153.646 113.369L154.054 113.143L154.038 112.725L154.458 112.207L154.484 112.904L155.017 112.608L155.033 113.041L154.501 113.337L154.562 114.959L155.094 114.663L155.111 115.096L154.663 115.345L154.135 115.297L154.07 113.576L153.662 113.802Z" fill="#F7DF1E"/>
<path d="M157.469 113.345L157.485 113.778L156.247 114.465L155.72 114.417L155.65 112.572L156.152 111.953L156.876 111.551L157.403 111.599L157.445 112.704L156.122 113.437L156.147 114.079L157.469 113.345ZM156.084 112.432L156.106 113.004L156.998 112.51L156.976 111.937L156.084 112.432Z" fill="#F7DF1E"/>
<path d="M159.819 111.315L159.849 112.126L159.347 112.745L158.194 113.385L158.177 112.952L159.415 112.265L159.392 111.653L158.669 112.055L158.142 112.007L158.112 111.231L158.614 110.612L159.723 109.996L159.74 110.429L158.546 111.091L158.568 111.668L159.291 111.267L159.819 111.315Z" fill="#F7DF1E"/>
<path d="M160.317 110.109L160.301 109.676L160.709 109.449L160.693 109.031L161.113 108.514L161.139 109.21L161.672 108.915L161.688 109.348L161.156 109.643L161.217 111.265L161.749 110.97L161.766 111.402L161.318 111.651L160.79 111.603L160.725 109.882L160.317 110.109Z" fill="#F7DF1E"/>
<path d="M140.617 129.066L140.588 128.32L141.254 127.951L141.282 128.697L140.617 129.066Z" fill="#F7DF1E"/>
<path d="M143.815 126.849L143.831 127.282L142.594 127.969L142.066 127.921L141.997 126.076L142.499 125.457L143.222 125.055L143.749 125.103L143.791 126.207L142.469 126.941L142.493 127.583L143.815 126.849ZM142.431 125.936L142.452 126.508L143.344 126.013L143.322 125.441L142.431 125.936Z" fill="#F7DF1E"/>
<path d="M146.343 123.663L146.426 125.842L145.995 126.081L145.916 124.002L144.892 124.57L144.97 126.65L144.54 126.889L144.445 124.376L144.769 124.197L144.883 124.342L145.19 123.963L145.816 123.616L146.343 123.663Z" fill="#F7DF1E"/>
<path d="M147.196 122.875L147.925 124.543L147.934 124.538L148.514 122.143L148.936 121.909L148.209 124.853L147.69 125.141L146.775 123.109L147.196 122.875Z" fill="#F7DF1E"/>
<path d="M149.564 124.101L149.535 123.354L150.201 122.985L150.229 123.731L149.564 124.101Z" fill="#F7DF1E"/>
<path d="M152.651 121.219L152.682 122.03L152.18 122.649L151.026 123.289L151.01 122.856L152.247 122.169L152.224 121.557L151.501 121.959L150.974 121.911L150.945 121.135L151.447 120.516L152.556 119.9L152.572 120.333L151.379 120.996L151.4 121.573L152.124 121.171L152.651 121.219Z" fill="#F7DF1E"/>
<path d="M153.149 120.013L153.133 119.58L153.541 119.353L153.525 118.935L153.945 118.418L153.972 119.115L154.504 118.819L154.52 119.252L153.988 119.547L154.049 121.169L154.582 120.874L154.598 121.307L154.15 121.555L153.623 121.508L153.558 119.786L153.149 120.013Z" fill="#F7DF1E"/>
<path d="M155.523 119.752L155.546 120.364L156.438 119.869L156.415 119.257L155.523 119.752ZM155.647 120.75L155.12 120.702L155.089 119.891L155.591 119.272L156.399 118.824L156.376 118.222L155.275 118.833L155.259 118.4L156.275 117.836L156.802 117.884L156.885 120.063L156.769 120.127L156.447 120.098L156.139 120.477L155.647 120.75Z" fill="#F7DF1E"/>
<path d="M158.025 119.405L157.584 119.365L157.567 118.917L157.874 118.538L157.551 118.509L157.513 117.489L158.015 116.87L159.43 116.085L159.437 116.254L159.043 116.742L159.32 116.771L159.346 117.457L158.844 118.076L157.992 118.549L158.008 118.972L158.993 118.425L159.521 118.473L159.55 119.259L159.048 119.878L158.059 120.427L157.532 120.379L157.52 120.071L157.94 119.554L157.959 120.051L159.117 119.408L159.094 118.811L158.025 119.405ZM157.947 117.34L157.976 118.126L158.913 117.607L158.883 116.821L157.947 117.34Z" fill="#F7DF1E"/>
<path d="M161.882 116.822L161.899 117.255L160.661 117.942L160.134 117.894L160.064 116.048L160.566 115.429L161.289 115.028L161.816 115.076L161.858 116.18L160.536 116.914L160.56 117.556L161.882 116.822ZM160.498 115.909L160.52 116.481L161.411 115.986L161.39 115.414L160.498 115.909Z" fill="#F7DF1E"/>
<path d="M129.796 140.998L129.768 140.251L130.434 139.882L130.462 140.628L129.796 140.998Z" fill="#F7DF1E"/>
<path d="M132.995 138.78L133.011 139.213L131.773 139.9L131.246 139.853L131.176 138.007L131.678 137.388L132.402 136.986L132.929 137.034L132.971 138.139L131.648 138.872L131.673 139.514L132.995 138.78ZM131.61 137.867L131.632 138.44L132.524 137.945L132.502 137.373L131.61 137.867Z" fill="#F7DF1E"/>
<path d="M135.523 135.594L135.605 137.774L135.175 138.012L135.096 135.933L134.071 136.502L134.15 138.581L133.72 138.82L133.625 136.308L133.949 136.128L134.063 136.273L134.37 135.894L134.996 135.547L135.523 135.594Z" fill="#F7DF1E"/>
<path d="M136.376 134.806L137.105 136.474L137.114 136.469L137.694 134.075L138.115 133.841L137.389 136.784L136.87 137.072L135.955 135.04L136.376 134.806Z" fill="#F7DF1E"/>
<path d="M138.743 136.032L138.715 135.286L139.381 134.916L139.409 135.663L138.743 136.032Z" fill="#F7DF1E"/>
<path d="M141.622 134.46L140.952 134.832L140.629 134.802L140.674 135.977L140.243 136.215L140.111 132.708L140.435 132.528L140.549 132.673L140.856 132.294L141.526 131.922L142.053 131.97L142.124 133.841L141.622 134.46ZM140.557 132.902L140.621 134.574L141.69 133.98L141.627 132.308L140.557 132.902Z" fill="#F7DF1E"/>
<path d="M144.005 131.014L143.197 131.462L143.275 133.517L142.844 133.756L142.75 131.268L143.074 131.089L143.188 131.234L143.496 130.855L143.988 130.581L144.005 131.014Z" fill="#F7DF1E"/>
<path d="M146.443 131.444L145.941 132.063L145.084 132.538L144.557 132.49L144.486 130.62L144.988 130.001L145.845 129.526L146.372 129.573L146.443 131.444ZM144.921 130.48L144.984 132.152L146.009 131.583L145.945 129.912L144.921 130.48Z" fill="#F7DF1E"/>
<path d="M147.584 128.56L148.254 128.189L148.576 128.218L148.526 126.894L148.957 126.656L149.095 130.312L148.771 130.492L148.657 130.347L148.35 130.726L147.68 131.098L147.152 131.05L147.082 129.179L147.584 128.56ZM148.648 130.118L148.585 128.447L147.516 129.04L147.579 130.712L148.648 130.118Z" fill="#F7DF1E"/>
<path d="M149.791 129.586L149.709 127.407L150.139 127.168L150.218 129.247L151.243 128.678L151.164 126.599L151.594 126.36L151.689 128.872L151.365 129.052L151.251 128.907L150.944 129.286L150.318 129.633L149.791 129.586Z" fill="#F7DF1E"/>
<path d="M152.751 126.16L152.812 127.782L154.045 127.097L154.062 127.53L152.913 128.168L152.385 128.12L152.317 126.299L152.819 125.681L153.968 125.043L153.984 125.476L152.751 126.16Z" fill="#F7DF1E"/>
<path d="M154.426 125.23L154.41 124.797L154.818 124.571L154.802 124.153L155.222 123.636L155.248 124.332L155.781 124.037L155.797 124.469L155.265 124.765L155.326 126.387L155.858 126.091L155.875 126.524L155.427 126.773L154.899 126.725L154.834 125.004L154.426 125.23Z" fill="#F7DF1E"/>
<path d="M156.833 123.453L156.927 125.94L156.497 126.179L156.403 123.691L156.833 123.453ZM156.357 123.092L156.337 122.559L156.812 122.296L156.832 122.828L156.357 123.092Z" fill="#F7DF1E"/>
<path d="M159.51 124.192L159.008 124.811L158.152 125.286L157.625 125.238L157.554 123.367L158.056 122.748L158.912 122.273L159.439 122.321L159.51 124.192ZM157.988 123.228L158.051 124.9L159.076 124.331L159.013 122.659L157.988 123.228Z" fill="#F7DF1E"/>
<path d="M162.035 120.881L162.117 123.06L161.687 123.298L161.608 121.219L160.583 121.788L160.662 123.867L160.232 124.106L160.137 121.594L160.46 121.414L160.575 121.559L160.882 121.18L161.507 120.833L162.035 120.881Z" fill="#F7DF1E"/>
<path d="M145.699 135.169L145.847 139.099L146.437 138.772L146.451 139.12L145.506 139.644L145.331 135.017L146.276 134.493L146.289 134.841L145.699 135.169Z" fill="#F7DF1E"/>
<path d="M147.829 134.677L147.749 133.777L148.14 133.56L148.13 134.51L148.885 133.751L149.025 134.095L148.24 134.774L148.781 135.2L148.476 135.639L147.999 135.121L147.58 136.136L147.255 136.047L147.743 135.05L146.94 135.252L147.048 134.77L147.829 134.677Z" fill="#F7DF1E"/>
<path d="M149.919 136.179L149.891 135.433L150.556 135.063L150.584 135.81L149.919 136.179Z" fill="#F7DF1E"/>
<path d="M151.896 135.082L151.369 135.034L151.244 131.736L151.674 131.497L151.795 134.696L152.328 134.4L152.344 134.833L151.896 135.082Z" fill="#F7DF1E"/>
<path d="M154.663 133.231L154.161 133.85L153.305 134.325L152.778 134.278L152.707 132.407L153.209 131.788L154.065 131.313L154.592 131.36L154.663 133.231ZM153.141 132.268L153.204 133.939L154.229 133.37L154.166 131.699L153.141 132.268Z" fill="#F7DF1E"/>
<path d="M155.737 130.852L155.799 132.474L157.032 131.789L157.048 132.222L155.899 132.86L155.372 132.812L155.303 130.991L155.805 130.372L156.954 129.735L156.971 130.168L155.737 130.852Z" fill="#F7DF1E"/>
<path d="M157.971 130.669L157.994 131.281L158.886 130.786L158.863 130.174L157.971 130.669ZM158.095 131.667L157.567 131.619L157.537 130.808L158.039 130.189L158.846 129.741L158.824 129.139L157.723 129.75L157.707 129.317L158.723 128.753L159.25 128.801L159.333 130.98L159.217 131.044L158.895 131.015L158.587 131.394L158.095 131.667Z" fill="#F7DF1E"/>
<path d="M160.557 130.275L160.03 130.227L159.905 126.929L160.335 126.69L160.456 129.889L160.989 129.593L161.005 130.026L160.557 130.275Z" fill="#F7DF1E"/>
<path d="M161.976 130.148L161.827 126.217L161.237 126.545L161.224 126.197L162.169 125.672L162.344 130.299L161.399 130.823L161.386 130.475L161.976 130.148Z" fill="#F7DF1E"/>
<path d="M53.1058 98.2143L105.545 128.571L105.545 184.646L53.1058 155.357L53.1058 98.2143Z" fill="#F7DF1E"/>
<path d="M63.5076 158.445L63.5654 154.883L66.9197 156.709L66.8618 160.271L63.5076 158.445Z" fill="#333333"/>
<path d="M72.6003 157.722L72.5456 161.096L77.471 163.778L77.4345 166.028L70.0375 162L70.2505 148.877L77.6475 152.904L77.611 155.154L72.6856 152.472L72.6369 155.472L76.5031 157.577L76.4666 159.827L72.6003 157.722Z" fill="#333333"/>
<path d="M82.3359 160.129L82.1981 168.622L79.7265 167.276L79.9395 154.152L82.2522 155.412L87.4459 166.808L87.4812 166.827L87.619 158.334L90.0906 159.68L89.8776 172.804L87.5649 171.544L82.3712 160.148L82.3359 160.129Z" fill="#333333"/>
<path d="M103.404 166.929L98.7772 177.65L96.0585 176.169L91.858 160.642L94.3649 162.007L97.4699 173.704L97.5052 173.723L100.897 165.564L103.404 166.929Z" fill="#333333"/>
<path d="M104.304 173.173L105.776 173.974L105.738 176.317L104.266 175.516L104.304 173.173Z" fill="#333333"/>
<defs>
<clipPath id="clip0">
<rect width="220" height="250" fill="white"/>
</clipPath>
</defs>
</svg>
