<svg width="133" height="150" viewBox="0 0 133 150" fill="none" xmlns="http://www.w3.org/2000/svg">
<g clip-path="url(#clip0)">
<path d="M66.202 -5.35581e-05L132.095 37.4957L132.095 112.504L66.202 150L0.309143 112.504L0.309143 37.4957L66.202 -5.35581e-05Z" fill="white"/>
<path d="M120.329 109.918L68.3814 139.483V116.461L100.749 98.544L120.329 109.918V109.918ZM123.888 106.68L123.888 44.8612L104.886 55.9095L104.886 95.6491L123.888 106.68V106.68ZM11.8702 109.918L63.8182 139.483L63.8182 116.461L31.4337 98.544L11.8702 109.918ZM8.31163 106.68L8.31163 44.8612L27.3133 55.9095L27.3133 95.6491L8.31163 106.68ZM10.5421 40.853L63.8182 10.5344L63.8182 32.7851L29.68 51.6786L29.4075 51.8328L10.5421 40.853V40.853ZM121.657 40.853L68.3814 10.5344V32.7851L102.52 51.6615L102.792 51.8156L121.657 40.853Z" fill="#8ED6FB"/>
<path d="M63.8183 111.22L31.8764 93.5423L31.8764 58.5474L63.8183 77.0983L63.8183 111.22ZM68.3814 111.22L100.323 93.5594L100.323 58.5474L68.3814 77.0983L68.3814 111.22ZM34.0388 54.5049L66.0998 36.7763L98.1609 54.5049L66.0998 73.1243L34.0388 54.5049V54.5049Z" fill="#1C78C0"/>
</g>
<path d="M68.6461 77.1429L100.128 58.9286L100.128 93.75L68.6461 110.893L68.6461 77.1429Z" fill="#333333"/>
<path d="M71.8676 103.249L72.0097 107.01L70.9466 107.601L70.631 99.2432L74.979 96.8261L75.0195 97.9008L71.7346 99.7268L71.8271 102.175L74.4741 100.703L74.5147 101.778L71.8676 103.249Z" fill="#F7DF1E"/>
<path d="M76.5734 104.473L76.2578 96.1152L77.3209 95.5243L77.5959 102.808L80.3493 101.277L80.3899 102.352L76.5734 104.473Z" fill="#F7DF1E"/>
<path d="M87.2136 97.8027L86.0107 99.2882L82.8959 101.02L81.6325 100.905L81.3728 94.0277L82.5757 92.5422L85.6905 90.8106L86.9539 90.9251L87.2136 97.8027ZM82.4462 93.7113L82.6852 100.04L86.1402 98.119L85.9012 91.7907L82.4462 93.7113Z" fill="#F7DF1E"/>
<path d="M97.7277 84.1802L96.1298 93.6021L94.8647 94.3053L93.0384 88.4815L93.0171 88.4933L91.6967 96.0664L90.4317 96.7696L88.2025 89.4752L89.2337 88.902L91.0012 94.8926L91.0224 94.8808L92.3698 87.1586L93.5604 86.4968L95.4129 92.4401L95.4342 92.4283L96.6965 84.7534L97.7277 84.1802Z" fill="#F7DF1E"/>
<path d="M68.4825 104.146L69.3684 103.653L69.4248 105.146L68.5389 105.638L68.4825 104.146Z" fill="#F7DF1E"/>
<path d="M74.9771 75.6455L74.9602 75.1978L75.3589 74.9762L75.3758 75.4239L74.9771 75.6455Z" fill="#F7DF1E"/>
<path d="M76.8931 74.3153L76.9029 74.575L76.1614 74.9872L75.8456 74.9586L75.8038 73.8511L76.1045 73.4797L76.5377 73.2389L76.8536 73.2675L76.8786 73.9302L76.0866 74.3705L76.1011 74.7556L76.8931 74.3153ZM76.0638 73.7675L76.0768 74.1108L76.611 73.8138L76.598 73.4706L76.0638 73.7675Z" fill="#F7DF1E"/>
<path d="M78.4075 72.4037L78.4569 73.7112L78.1991 73.8545L78.1519 72.6067L77.538 72.948L77.5851 74.1958L77.3273 74.3391L77.2704 72.8316L77.4644 72.7238L77.5328 72.8107L77.7169 72.5834L78.0916 72.3751L78.4075 72.4037Z" fill="#F7DF1E"/>
<path d="M78.9186 71.9306L79.3553 72.9313L79.3606 72.9284L79.708 71.4918L79.9605 71.3515L79.5251 73.1173L79.2142 73.2902L78.6662 72.071L78.9186 71.9306Z" fill="#F7DF1E"/>
<path d="M80.3367 72.6662L80.3197 72.2184L80.7184 71.9968L80.7353 72.4446L80.3367 72.6662Z" fill="#F7DF1E"/>
<path d="M81.464 70.5004L81.8653 70.2773L82.0587 70.2948L82.0287 69.5008L82.2865 69.3575L82.3693 71.5515L82.1753 71.6593L82.1069 71.5724L81.9228 71.7997L81.5215 72.0228L81.2057 71.9942L81.1633 70.8718L81.464 70.5004ZM82.1017 71.4351L82.0638 70.4321L81.4233 70.7882L81.4612 71.7912L82.1017 71.4351Z" fill="#F7DF1E"/>
<path d="M83.8332 70.4573L83.843 70.717L83.1016 71.1292L82.7857 71.1006L82.7439 69.9931L83.0446 69.6218L83.4778 69.3809L83.7937 69.4096L83.8187 70.0722L83.0267 70.5125L83.0412 70.8976L83.8332 70.4573ZM83.0039 69.9095L83.0169 70.2528L83.5511 69.9558L83.5381 69.6126L83.0039 69.9095Z" fill="#F7DF1E"/>
<path d="M84.3041 68.9369L84.7408 69.9376L84.7461 69.9346L85.0934 68.4981L85.3459 68.3577L84.9106 70.1236L84.5997 70.2964L84.0516 69.0772L84.3041 68.9369Z" fill="#F7DF1E"/>
<path d="M86.709 68.8587L86.7188 69.1184L85.9773 69.5306L85.6614 69.502L85.6196 68.3945L85.9203 68.0232L86.3535 67.7823L86.6694 67.811L86.6944 68.4736L85.9024 68.9139L85.917 69.299L86.709 68.8587ZM85.8796 68.3109L85.8926 68.6542L86.4268 68.3572L86.4138 68.014L85.8796 68.3109Z" fill="#F7DF1E"/>
<path d="M87.4515 68.7111L87.1356 68.6825L87.0609 66.7034L87.3187 66.5601L87.3911 68.4795L87.7101 68.3022L87.7199 68.5619L87.4515 68.7111Z" fill="#F7DF1E"/>
<path d="M89.1092 67.6006L88.8085 67.972L88.2955 68.2571L87.9797 68.2285L87.9373 67.1061L88.238 66.7348L88.751 66.4496L89.0668 66.4782L89.1092 67.6006ZM88.1973 67.0225L88.2352 68.0255L88.8491 67.6842L88.8113 66.6812L88.1973 67.0225Z" fill="#F7DF1E"/>
<path d="M90.3897 67.093L89.9884 67.3161L89.7951 67.2986L89.8217 68.0031L89.5639 68.1464L89.4844 66.0419L89.6784 65.9341L89.7468 66.021L89.9309 65.7937L90.3322 65.5706L90.648 65.5992L90.6904 66.7216L90.3897 67.093ZM89.752 66.1583L89.7899 67.1613L90.4304 66.8052L90.3925 65.8022L89.752 66.1583Z" fill="#F7DF1E"/>
<path d="M92.8612 64.369L92.9105 65.6764L92.6527 65.8197L92.6056 64.572L92.098 64.8542L92.1451 66.1019L91.8873 66.2452L91.8402 64.9975L91.3326 65.2796L91.3797 66.5274L91.1219 66.6707L91.065 65.1633L91.259 65.0554L91.3274 65.1423L91.5115 64.9151L91.7799 64.7658L92.0332 64.7896L92.2769 64.4896L92.5453 64.3403L92.8612 64.369Z" fill="#F7DF1E"/>
<path d="M94.3758 64.5967L94.3856 64.8564L93.6441 65.2686L93.3282 65.24L93.2864 64.1326L93.5872 63.7612L94.0204 63.5204L94.3362 63.549L94.3612 64.2117L93.5692 64.6519L93.5838 65.037L94.3758 64.5967ZM93.5465 64.049L93.5594 64.3922L94.0936 64.0953L94.0807 63.752L93.5465 64.049Z" fill="#F7DF1E"/>
<path d="M95.8901 62.6852L95.9395 63.9926L95.6817 64.1359L95.6346 62.8882L95.0207 63.2295L95.0678 64.4772L94.81 64.6205L94.7531 63.1131L94.9471 63.0052L95.0155 63.0921L95.1996 62.8649L95.5743 62.6565L95.8901 62.6852Z" fill="#F7DF1E"/>
<path d="M96.2118 62.5826L96.202 62.3229L96.4465 62.1869L96.437 61.9362L96.6885 61.6257L96.7043 62.0436L97.0232 61.8663L97.033 62.126L96.7141 62.3033L96.7508 63.2765L97.0698 63.0992L97.0796 63.3589L96.8111 63.5081L96.4953 63.4795L96.4563 62.4466L96.2118 62.5826Z" fill="#F7DF1E"/>
<path d="M86.2741 72.9213L86.2572 72.4735L86.6558 72.2519L86.6727 72.6996L86.2741 72.9213Z" fill="#F7DF1E"/>
<path d="M88.1901 71.591L88.1999 71.8507L87.4584 72.2629L87.1425 72.2343L87.1007 71.1268L87.4015 70.7555L87.8347 70.5146L88.1505 70.5433L88.1755 71.2059L87.3835 71.6462L87.3981 72.0313L88.1901 71.591ZM87.3608 71.0432L87.3737 71.3865L87.9079 71.0896L87.895 70.7463L87.3608 71.0432Z" fill="#F7DF1E"/>
<path d="M89.7044 69.6794L89.7538 70.9869L89.496 71.1302L89.4489 69.8825L88.835 70.2237L88.8821 71.4715L88.6243 71.6148L88.5674 70.1073L88.7614 69.9995L88.8298 70.0864L89.0139 69.8591L89.3886 69.6508L89.7044 69.6794Z" fill="#F7DF1E"/>
<path d="M90.2156 69.2063L90.6523 70.2071L90.6576 70.2041L91.0049 68.7675L91.2574 68.6272L90.8221 70.393L90.5111 70.5659L89.9631 69.3467L90.2156 69.2063Z" fill="#F7DF1E"/>
<path d="M91.6336 69.9419L91.6167 69.4942L92.0154 69.2726L92.0323 69.7203L91.6336 69.9419Z" fill="#F7DF1E"/>
<path d="M92.3567 68.2812L92.3469 68.0215L92.5914 67.8856L92.582 67.6349L92.8335 67.3244L92.8492 67.7423L93.1682 67.565L93.178 67.8247L92.8591 68.002L92.8958 68.9751L93.2147 68.7978L93.2245 69.0575L92.9561 69.2068L92.6403 69.1781L92.6013 68.1453L92.3567 68.2812Z" fill="#F7DF1E"/>
<path d="M94.6371 68.0072L94.6469 68.2669L93.9054 68.6791L93.5895 68.6504L93.5477 67.543L93.8484 67.1716L94.2817 66.9308L94.5975 66.9594L94.6225 67.6221L93.8305 68.0624L93.8451 68.4474L94.6371 68.0072ZM93.8078 67.4594L93.8207 67.8027L94.3549 67.5057L94.342 67.1624L93.8078 67.4594Z" fill="#F7DF1E"/>
<path d="M96.0446 66.7889L96.063 67.2754L95.7623 67.6468L95.0713 68.0309L95.0615 67.7712L95.803 67.359L95.7891 66.9919L95.3559 67.2327L95.04 67.2041L95.0225 66.7384L95.3232 66.367L95.9876 65.9977L95.9974 66.2574L95.2825 66.6548L95.2956 67.0011L95.7288 66.7602L96.0446 66.7889Z" fill="#F7DF1E"/>
<path d="M96.3433 66.0651L96.3335 65.8054L96.578 65.6695L96.5685 65.4188L96.82 65.1083L96.8358 65.5262L97.1547 65.3489L97.1645 65.6086L96.8456 65.7859L96.8823 66.759L97.2013 66.5817L97.2111 66.8414L96.9426 66.9906L96.6268 66.962L96.5878 65.9292L96.3433 66.0651Z" fill="#F7DF1E"/>
<path d="M84.5421 77.4397L84.5252 76.992L84.9239 76.7704L84.9408 77.2181L84.5421 77.4397Z" fill="#F7DF1E"/>
<path d="M86.4581 76.1095L86.4679 76.3692L85.7264 76.7814L85.4106 76.7528L85.3687 75.6453L85.6695 75.2739L86.1027 75.0331L86.4185 75.0617L86.4435 75.7244L85.6516 76.1647L85.6661 76.5498L86.4581 76.1095ZM85.6288 75.5617L85.6417 75.905L86.1759 75.608L86.163 75.2647L85.6288 75.5617Z" fill="#F7DF1E"/>
<path d="M87.9724 74.1979L88.0218 75.5054L87.764 75.6487L87.7169 74.4009L87.103 74.7422L87.1501 75.99L86.8923 76.1333L86.8354 74.6258L87.0294 74.518L87.0978 74.6049L87.2819 74.3776L87.6566 74.1693L87.9724 74.1979Z" fill="#F7DF1E"/>
<path d="M88.4836 73.7248L88.9203 74.7255L88.9256 74.7226L89.2729 73.286L89.5254 73.1457L89.0901 74.9115L88.7792 75.0844L88.2311 73.8652L88.4836 73.7248Z" fill="#F7DF1E"/>
<path d="M89.9016 74.4604L89.8847 74.0126L90.2834 73.791L90.3003 74.2388L89.9016 74.4604Z" fill="#F7DF1E"/>
<path d="M91.751 72.7314L91.7694 73.2179L91.4686 73.5893L90.7776 73.9734L90.7678 73.7137L91.5093 73.3015L91.4954 72.9344L91.0622 73.1752L90.7464 73.1466L90.7288 72.6809L91.0296 72.3095L91.694 71.9402L91.7038 72.1999L90.9889 72.5973L91.0019 72.9436L91.4351 72.7027L91.751 72.7314Z" fill="#F7DF1E"/>
<path d="M92.0496 72.0076L92.0398 71.7479L92.2843 71.612L92.2749 71.3612L92.5264 71.0508L92.5421 71.4687L92.8611 71.2914L92.8709 71.5511L92.5519 71.7284L92.5887 72.7015L92.9076 72.5242L92.9174 72.7839L92.649 72.9331L92.3331 72.9045L92.2941 71.8717L92.0496 72.0076Z" fill="#F7DF1E"/>
<path d="M93.4715 71.8511L93.4854 72.2183L94.0196 71.9213L94.0057 71.5542L93.4715 71.8511ZM93.5457 72.4499L93.2298 72.4213L93.2115 71.9347L93.5122 71.5633L93.9959 71.2945L93.9823 70.9333L93.3231 71.2997L93.3133 71.04L93.922 70.7016L94.2378 70.7303L94.2872 72.0377L94.2181 72.0761L94.0248 72.0586L93.8407 72.2859L93.5457 72.4499Z" fill="#F7DF1E"/>
<path d="M94.9701 71.6429L94.7059 71.619L94.6958 71.3504L94.8799 71.1231L94.6866 71.1056L94.6634 70.4936L94.9642 70.1223L95.812 69.651L95.8158 69.7525L95.5799 70.0451L95.7461 70.0625L95.7617 70.4744L95.4609 70.8458L94.9507 71.1294L94.9602 71.3832L95.5503 71.0552L95.8661 71.0838L95.8839 71.5554L95.5832 71.9268L94.9905 72.2563L94.6747 72.2277L94.6677 72.0426L94.9192 71.7321L94.9304 72.0306L95.6241 71.645L95.6106 71.2868L94.9701 71.6429ZM94.9233 70.4041L94.9411 70.8757L95.5019 70.564L95.484 70.0923L94.9233 70.4041Z" fill="#F7DF1E"/>
<path d="M97.2809 70.0931L97.2907 70.3528L96.5492 70.765L96.2334 70.7364L96.1916 69.6289L96.4923 69.2575L96.9255 69.0167L97.2414 69.0453L97.2664 69.708L96.4744 70.1483L96.4889 70.5334L97.2809 70.0931ZM96.4516 69.5453L96.4646 69.8886L96.9988 69.5916L96.9858 69.2484L96.4516 69.5453Z" fill="#F7DF1E"/>
<path d="M78.0605 84.5985L78.0436 84.1507L78.4423 83.9291L78.4592 84.3769L78.0605 84.5985Z" fill="#F7DF1E"/>
<path d="M79.9765 83.2682L79.9863 83.5279L79.2448 83.9401L78.929 83.9115L78.8872 82.8041L79.1879 82.4327L79.6211 82.1919L79.9369 82.2205L79.962 82.8832L79.17 83.3234L79.1845 83.7085L79.9765 83.2682ZM79.1472 82.7205L79.1602 83.0637L79.6944 82.7668L79.6814 82.4235L79.1472 82.7205Z" fill="#F7DF1E"/>
<path d="M81.4909 81.3567L81.5402 82.6641L81.2824 82.8074L81.2353 81.5597L80.6214 81.901L80.6685 83.1487L80.4107 83.292L80.3538 81.7846L80.5478 81.6767L80.6162 81.7637L80.8003 81.5364L81.175 81.3281L81.4909 81.3567Z" fill="#F7DF1E"/>
<path d="M82.002 80.8836L82.4387 81.8843L82.444 81.8813L82.7914 80.4448L83.0438 80.3044L82.6085 82.0703L82.2976 82.2431L81.7495 81.0239L82.002 80.8836Z" fill="#F7DF1E"/>
<path d="M83.42 81.6191L83.4031 81.1714L83.8018 80.9498L83.8187 81.3975L83.42 81.6191Z" fill="#F7DF1E"/>
<path d="M85.1444 80.6758L84.7431 80.8989L84.5498 80.8814L84.5764 81.5859L84.3186 81.7292L84.2391 79.6247L84.4331 79.5169L84.5015 79.6038L84.6856 79.3765L85.0869 79.1534L85.4028 79.1821L85.4452 80.3044L85.1444 80.6758ZM84.5067 79.7411L84.5446 80.7441L85.1851 80.388L85.1472 79.3851L84.5067 79.7411Z" fill="#F7DF1E"/>
<path d="M86.5716 78.6085L86.0879 78.8774L86.1344 80.1102L85.8766 80.2535L85.8203 78.761L86.0143 78.6532L86.0827 78.7401L86.2668 78.5128L86.5618 78.3488L86.5716 78.6085Z" fill="#F7DF1E"/>
<path d="M88.0321 78.8663L87.7314 79.2377L87.2185 79.5229L86.9026 79.4942L86.8602 78.3719L87.161 78.0005L87.6739 77.7153L87.9898 77.744L88.0321 78.8663ZM87.1203 78.2882L87.1582 79.2912L87.7721 78.9499L87.7342 77.947L87.1203 78.2882Z" fill="#F7DF1E"/>
<path d="M88.7156 77.1363L89.1169 76.9132L89.3103 76.9307L89.2803 76.1366L89.5381 75.9933L89.6209 78.1873L89.4269 78.2952L89.3585 78.2083L89.1744 78.4355L88.7731 78.6586L88.4573 78.63L88.4149 77.5076L88.7156 77.1363ZM89.3533 78.0709L89.3154 77.068L88.6749 77.424L88.7128 78.427L89.3533 78.0709Z" fill="#F7DF1E"/>
<path d="M90.0379 77.7514L89.9885 76.4439L90.2463 76.3006L90.2934 77.5483L90.9073 77.2071L90.8602 75.9593L91.118 75.816L91.175 77.3235L90.9809 77.4313L90.9125 77.3444L90.7285 77.5717L90.3537 77.78L90.0379 77.7514Z" fill="#F7DF1E"/>
<path d="M91.8108 75.6961L91.8475 76.6692L92.5863 76.2585L92.5962 76.5182L91.9078 76.9008L91.592 76.8722L91.5507 75.7797L91.8514 75.4083L92.5398 75.0257L92.5496 75.2854L91.8108 75.6961Z" fill="#F7DF1E"/>
<path d="M92.8144 75.1381L92.8046 74.8784L93.0491 74.7425L93.0397 74.4918L93.2911 74.1813L93.3069 74.5992L93.6259 74.4219L93.6357 74.6816L93.3167 74.8589L93.3535 75.832L93.6724 75.6547L93.6822 75.9144L93.4138 76.0637L93.0979 76.035L93.0589 75.0022L92.8144 75.1381Z" fill="#F7DF1E"/>
<path d="M94.2562 74.0715L94.3126 75.564L94.0548 75.7073L93.9984 74.2148L94.2562 74.0715ZM93.9713 73.855L93.9592 73.5356L94.2436 73.3776L94.2556 73.697L93.9713 73.855Z" fill="#F7DF1E"/>
<path d="M95.8599 74.5149L95.5592 74.8863L95.0462 75.1714L94.7304 75.1428L94.688 74.0204L94.9887 73.6491L95.5017 73.3639L95.8175 73.3925L95.8599 74.5149ZM94.948 73.9368L94.9859 74.9398L95.5998 74.5985L95.562 73.5955L94.948 73.9368Z" fill="#F7DF1E"/>
<path d="M97.3722 72.5283L97.4215 73.8358L97.1637 73.9791L97.1166 72.7313L96.5027 73.0726L96.5498 74.3203L96.292 74.4637L96.2351 72.9562L96.4291 72.8484L96.4975 72.9353L96.6816 72.708L97.0563 72.4997L97.3722 72.5283Z" fill="#F7DF1E"/>
<path d="M87.5865 81.1012L87.6755 83.4594L88.029 83.2629L88.0369 83.4718L87.4708 83.7865L87.366 81.0104L87.932 80.6958L87.9399 80.9047L87.5865 81.1012Z" fill="#F7DF1E"/>
<path d="M88.8623 80.8065L88.8147 80.266L89.0486 80.136L89.043 80.706L89.4952 80.2504L89.579 80.4568L89.1087 80.8645L89.4331 81.12L89.2504 81.3831L88.9646 81.0726L88.7135 81.6816L88.5189 81.6282L88.811 81.03L88.3299 81.1512L88.395 80.8621L88.8623 80.8065Z" fill="#F7DF1E"/>
<path d="M90.1143 81.7074L90.0974 81.2597L90.4961 81.0381L90.513 81.4858L90.1143 81.7074Z" fill="#F7DF1E"/>
<path d="M91.2986 81.0491L90.9828 81.0205L90.9081 79.0414L91.1659 78.8981L91.2383 80.8175L91.5573 80.6402L91.5671 80.8999L91.2986 81.0491Z" fill="#F7DF1E"/>
<path d="M92.9564 79.9386L92.6556 80.31L92.1427 80.5951L91.8269 80.5665L91.7845 79.4441L92.0852 79.0727L92.5982 78.7876L92.914 78.8162L92.9564 79.9386ZM92.0445 79.3605L92.0824 80.3635L92.6963 80.0222L92.6585 79.0192L92.0445 79.3605Z" fill="#F7DF1E"/>
<path d="M93.5997 78.5112L93.6365 79.4843L94.3753 79.0736L94.3851 79.3333L93.6968 79.716L93.381 79.6873L93.3397 78.5948L93.6404 78.2234L94.3288 77.8408L94.3386 78.1005L93.5997 78.5112Z" fill="#F7DF1E"/>
<path d="M94.9378 78.4013L94.9517 78.7685L95.4859 78.4715L95.472 78.1043L94.9378 78.4013ZM95.012 79.0001L94.6961 78.9715L94.6778 78.4849L94.9785 78.1135L95.4622 77.8446L95.4486 77.4835L94.7895 77.8499L94.7797 77.5902L95.3883 77.2518L95.7041 77.2804L95.7535 78.5879L95.6844 78.6263L95.4911 78.6088L95.307 78.8361L95.012 79.0001Z" fill="#F7DF1E"/>
<path d="M96.4869 78.165L96.171 78.1364L96.0963 76.1573L96.3541 76.014L96.4266 77.9334L96.7455 77.7561L96.7553 78.0158L96.4869 78.165Z" fill="#F7DF1E"/>
<path d="M97.337 78.0886L97.248 75.7304L96.8945 75.9269L96.8866 75.7179L97.4527 75.4032L97.5576 78.1793L96.9915 78.494L96.9836 78.2851L97.337 78.0886Z" fill="#F7DF1E"/>
<path d="M32.1209 58.9286L63.5334 77.1429L63.5334 110.787L32.1209 93.2143L32.1209 58.9286Z" fill="#F7DF1E"/>
<path d="M37.1538 94.4668L37.1884 92.3295L39.1977 93.4254L39.1631 95.5627L37.1538 94.4668Z" fill="#333333"/>
<path d="M42.6006 94.033L42.5678 96.0578L45.5182 97.667L45.4964 99.0169L41.0653 96.6002L41.193 88.7259L45.624 91.1426L45.6021 92.4925L42.6516 90.8833L42.6224 92.6831L44.9384 93.9463L44.9165 95.2962L42.6006 94.033Z" fill="#333333"/>
<path d="M48.4324 95.4774L48.3498 100.573L46.8693 99.7657L46.9969 91.8914L48.3823 92.647L51.4934 99.4847L51.5146 99.4962L51.5971 94.4004L53.0777 95.2079L52.9501 103.082L51.5647 102.327L48.4536 95.489L48.4324 95.4774Z" fill="#333333"/>
<path d="M61.0526 99.5575L58.2812 105.99L56.6526 105.102L54.1364 95.7854L55.6381 96.6044L57.4981 103.622L57.5192 103.634L59.5509 98.7385L61.0526 99.5575Z" fill="#333333"/>
<path d="M61.5921 103.304L62.4734 103.784L62.4506 105.19L61.5693 104.71L61.5921 103.304Z" fill="#333333"/>
<defs>
<clipPath id="clip0">
<rect width="131.786" height="150" fill="white" transform="translate(0.309143)"/>
</clipPath>
</defs>
</svg>
